<svg width="13" height="15" viewBox="0 0 13 15" fill="none" xmlns="http://www.w3.org/2000/svg">
<path d="M3.25 0.447749C3.25 0.328739 3.2072 0.214604 3.13101 0.130452C3.05483 0.0462997 2.95149 -0.000976562 2.84375 -0.000976562C2.73601 -0.000976562 2.63267 0.0462997 2.55649 0.130452C2.4803 0.214604 2.4375 0.328739 2.4375 0.447749V0.896474H1.625C1.19402 0.896474 0.780698 1.08558 0.475951 1.42219C0.171205 1.7588 0 2.21534 0 2.69137V3.58882H13V2.69137C13 2.21534 12.8288 1.7588 12.524 1.42219C12.2193 1.08558 11.806 0.896474 11.375 0.896474H10.5625V0.447749C10.5625 0.328739 10.5197 0.214604 10.4435 0.130452C10.3673 0.0462997 10.264 -0.000976562 10.1562 -0.000976562C10.0485 -0.000976562 9.94517 0.0462997 9.86899 0.130452C9.7928 0.214604 9.75 0.328739 9.75 0.447749V0.896474H3.25V0.447749Z" fill="#ED1C24"/>
<path d="M13 12.5633V4.48628H0V12.5633C0 13.0394 0.171205 13.4959 0.475951 13.8325C0.780698 14.1691 1.19402 14.3582 1.625 14.3582H11.375C11.806 14.3582 12.2193 14.1691 12.524 13.8325C12.8288 13.4959 13 13.0394 13 12.5633Z" fill="#ED1C24"/>
</svg>
