<svg width="19" height="19" viewBox="0 0 19 19" fill="none" xmlns="http://www.w3.org/2000/svg">
<path d="M17.5862 17.8867V11.9482H11.1901V17.8867H10.0768V10.8349H13.8315V4.48571H12.58V1.99823H11.1638V0H10.0505V1.99823H8.63424V4.48571H7.38269V17.8867H6.26941V6.97322H1.41383V17.8867H0V19H19V17.8867H17.5862ZM11.2942 5.85994H12.4075V6.97322H11.2942V5.85994ZM11.2942 8.34742H12.4075V9.4607H11.2942V8.34742ZM4.37367 17.4501H3.26039V16.3368H4.37367V17.4501ZM4.37367 14.787H3.26039V13.6737H4.37367V14.787ZM4.37367 12.1239H3.26039V11.0106H4.37367V12.1239ZM4.37367 9.4607H3.26039V8.34742H4.37367V9.4607ZM9.92 9.4607H8.80672V8.34742H9.92V9.4607ZM9.92 6.97322H8.80672V5.85994H9.92V6.97322ZM10.0504 3.37243H11.1637V4.48571H10.0504V3.37243ZM13.6932 17.8867H12.58V13.4187H13.6932V17.8867ZM16.1964 17.8867H15.0831V13.4187H16.1964V17.8867Z" fill="#4D4D4D"/>
</svg>
