<svg width="65" height="39" viewBox="0 0 65 39" fill="none" xmlns="http://www.w3.org/2000/svg">
<path d="M64.2452 19.0967C64.2452 29.5754 55.7251 38.1934 45.1485 38.1934C34.6698 38.1934 26.0518 29.5754 26.0518 19.0967C26.0518 8.61801 34.5718 0 45.0505 0C55.7251 0 64.2452 8.61801 64.2452 19.0967Z" fill="#F9B50B"/>
<path d="M38.6844 19.1956C38.6844 17.8246 38.4885 16.4535 38.2926 15.1804H26.5408C26.6388 14.4949 26.8346 13.9073 27.0305 13.1239H37.5092C37.3133 12.4383 37.0195 11.7528 36.7257 11.0673H27.8139C28.1077 10.3818 28.4995 9.79417 28.8912 9.01071H35.6485C35.2568 8.32519 34.7671 7.63967 34.1795 6.95414H30.4581C31.0457 6.26862 31.6333 5.68103 32.4167 4.9955C29.087 1.86168 24.5822 0.000976562 19.5877 0.000976562C9.20687 0.294772 0.588867 8.61898 0.588867 19.0977C0.588867 29.5764 9.10894 38.1944 19.6856 38.1944C24.6801 38.1944 29.087 36.2358 32.5147 33.1999C33.2002 32.6123 33.7878 31.9268 34.4733 31.1433H30.556C30.0664 30.5557 29.5767 29.8702 29.185 29.1847H35.8443C36.2361 28.5971 36.6278 27.9116 36.9216 27.1281H28.0098C27.716 26.5405 27.4222 25.855 27.2263 25.0715H37.7051C38.2926 23.3088 38.6844 21.3501 38.6844 19.1956Z" fill="#C8191C"/>
<path d="M26.4438 23.9948L26.7376 22.232C26.6397 22.232 26.4438 22.33 26.248 22.33C25.5624 22.33 25.4645 21.9382 25.5624 21.7424L26.15 18.2168H27.2273L27.5211 16.2582H26.5417L26.7376 15.083H24.681C24.681 15.083 23.5059 21.7424 23.5059 22.5258C23.5059 23.701 24.1914 24.2886 25.1707 24.2886C25.7583 24.2886 26.248 24.0927 26.4438 23.9948Z" fill="white"/>
<path d="M27.1284 20.7614C27.1284 23.6015 29.0871 24.287 30.654 24.287C32.1229 24.287 32.8085 23.9932 32.8085 23.9932L33.2002 22.0345C33.2002 22.0345 32.1229 22.5242 31.0457 22.5242C28.7933 22.5242 29.185 20.8594 29.185 20.8594H33.2981C33.2981 20.8594 33.5919 19.5862 33.5919 18.9987C33.5919 17.7255 32.9064 16.0607 30.654 16.0607C28.6953 15.9628 27.1284 18.2152 27.1284 20.7614ZM30.654 17.8235C31.7312 17.8235 31.5354 19.0966 31.5354 19.1945H29.2829C29.3809 19.0966 29.5767 17.8235 30.654 17.8235Z" fill="white"/>
<path d="M43.4825 23.9927L43.8742 21.7403C43.8742 21.7403 42.8949 22.2299 42.1115 22.2299C40.7404 22.2299 40.0549 21.1527 40.0549 19.8795C40.0549 17.4312 41.2301 16.1581 42.6991 16.1581C43.6784 16.1581 44.5598 16.7457 44.5598 16.7457L44.8536 14.5912C44.8536 14.5912 43.6784 14.1016 42.5032 14.1016C40.1528 14.1016 37.9004 16.1581 37.9004 19.9775C37.9004 22.5237 39.0756 24.1885 41.5239 24.1885C42.4053 24.2865 43.4825 23.9927 43.4825 23.9927Z" fill="white"/>
<path d="M15.3765 15.9639C14.0054 15.9639 12.9282 16.3556 12.9282 16.3556L12.6344 18.1184C12.6344 18.1184 13.5158 17.7266 14.8868 17.7266C15.5723 17.7266 16.1599 17.8246 16.1599 18.4122C16.1599 18.8039 16.062 18.9018 16.062 18.9018H15.1806C13.4178 18.9018 11.5571 19.5873 11.5571 21.9377C11.5571 23.7984 12.7323 24.1901 13.5158 24.1901C14.8868 24.1901 15.5723 23.3088 15.6703 23.3088L15.5723 24.0922H17.2372L18.0206 18.5101C18.0206 16.0618 16.062 15.9639 15.3765 15.9639ZM15.7682 20.4687C15.7682 20.7625 15.5723 22.4274 14.3972 22.4274C13.8096 22.4274 13.6137 21.9377 13.6137 21.6439C13.6137 21.1543 13.9075 20.4687 15.4744 20.4687C15.6703 20.4687 15.7682 20.4687 15.7682 20.4687Z" fill="white"/>
<path d="M19.9795 24.1865C20.4692 24.1865 23.0154 24.2844 23.0154 21.5424C23.0154 18.9961 20.5671 19.4858 20.5671 18.5065C20.5671 18.0168 20.9589 17.8209 21.6444 17.8209C21.9382 17.8209 23.0154 17.9189 23.0154 17.9189L23.3092 16.0582C23.3092 16.0582 22.6237 15.8623 21.3506 15.8623C19.8816 15.8623 18.3147 16.4499 18.3147 18.5065C18.3147 20.8568 20.8609 20.661 20.8609 21.5424C20.8609 22.1299 20.1754 22.2279 19.6858 22.2279C18.8044 22.2279 17.825 21.9341 17.825 21.9341L17.5312 23.7948C17.7271 23.9907 18.3147 24.1865 19.9795 24.1865Z" fill="white"/>
<path d="M60.3268 14.3955L59.9351 17.1376C59.9351 17.1376 59.1516 16.1583 57.9764 16.1583C56.1157 16.1583 54.5488 18.4107 54.5488 21.0549C54.5488 22.7197 55.3323 24.3846 57.0951 24.3846C58.2702 24.3846 59.0537 23.6011 59.0537 23.6011L58.9558 24.2866H61.0123L62.4813 14.5914L60.3268 14.3955ZM59.3475 19.6838C59.3475 20.7611 58.8578 22.2301 57.6826 22.2301C56.9971 22.2301 56.6054 21.6425 56.6054 20.5652C56.6054 18.9004 57.2909 17.9211 58.2702 17.9211C58.9558 18.019 59.3475 18.5086 59.3475 19.6838Z" fill="white"/>
<path d="M4.30971 24.0908L5.4849 16.8438L5.68076 24.0908H7.05181L9.69597 16.8438L8.61872 24.0908H10.7732L12.4381 14.3955H9.10838L7.05181 20.3694L6.95387 14.3955H4.01592L2.35107 24.0908H4.30971Z" fill="white"/>
<path d="M35.6475 24.0926C36.235 20.763 36.333 18.0209 37.802 18.5105C37.9978 17.2374 38.2916 16.6498 38.4875 16.1602H38.0958C37.2144 16.1602 36.4309 17.3353 36.4309 17.3353L36.6268 16.2581H34.6681L33.395 24.0926H35.6475Z" fill="white"/>
<path d="M48.1841 15.9639C46.813 15.9639 45.7358 16.3556 45.7358 16.3556L45.442 18.1184C45.442 18.1184 46.3234 17.7266 47.6944 17.7266C48.38 17.7266 48.9675 17.8246 48.9675 18.4122C48.9675 18.8039 48.8696 18.9018 48.8696 18.9018H47.9882C46.2255 18.9018 44.3647 19.5873 44.3647 21.9377C44.3647 23.7984 45.5399 24.1901 46.3234 24.1901C47.6944 24.1901 48.38 23.3088 48.4779 23.3088L48.38 24.0922H50.2407L51.0241 18.5101C51.0241 16.0618 48.8696 15.9639 48.1841 15.9639ZM48.6737 20.4687C48.6737 20.7625 48.4779 22.4274 47.3027 22.4274C46.7151 22.4274 46.5192 21.9377 46.5192 21.6439C46.5192 21.1543 46.813 20.4687 48.38 20.4687C48.5758 20.4687 48.5758 20.4687 48.6737 20.4687Z" fill="white"/>
<path d="M52.5898 24.0926C53.1774 20.763 53.2754 18.0209 54.7443 18.5105C54.9402 17.2374 55.234 16.6498 55.4299 16.1602H55.0381C54.1567 16.1602 53.3733 17.3353 53.3733 17.3353L53.5692 16.2581H51.6105L50.3374 24.0926H52.5898Z" fill="white"/>
</svg>
