<svg width="67" height="20" viewBox="0 0 67 20" fill="none" xmlns="http://www.w3.org/2000/svg">
<path d="M60.0407 0H47.2095C47.9569 4.23556 52.0679 8.22198 56.5526 8.22198H66.7678C66.8924 7.84825 66.8924 7.22537 66.8924 6.85164C66.8924 3.11438 63.778 0 60.0407 0Z" fill="url(#paint0_linear)"/>
<path d="M48.3311 8.96875V19.3085H54.5598V13.8272H60.0411C63.0309 13.8272 65.647 11.7094 66.5191 8.96875H48.3311Z" fill="#4FAD50"/>
<path d="M26.4062 0V19.1846H31.8876C31.8876 19.1846 33.2579 19.1846 34.0053 17.8143C37.7426 10.4643 38.8638 8.22197 38.8638 8.22197H39.6112V19.1846H45.84V0H40.3587C40.3587 0 38.9884 0.124583 38.2409 1.37034C35.1265 7.72367 33.3825 10.9626 33.3825 10.9626H32.635V0H26.4062Z" fill="#4FAD50"/>
<path d="M0.245117 19.3086V0.124023H6.47388C6.47388 0.124023 8.21795 0.12402 9.21455 2.86468C11.7061 10.09 11.9552 11.0866 11.9552 11.0866C11.9552 11.0866 12.4535 9.34259 14.6959 2.86468C15.6925 0.12402 17.4365 0.124023 17.4365 0.124023H23.6653V19.3086H17.4365V8.96887H16.6891L13.201 19.3086H10.4603L6.97221 8.96887H6.22475V19.3086H0.245117Z" fill="#4FAD50"/>
<defs>
<linearGradient id="paint0_linear" x1="47.1873" y1="4.16991" x2="66.8483" y2="4.16991" gradientUnits="userSpaceOnUse">
<stop stop-color="#27B1E6"/>
<stop offset="1" stop-color="#148ACA"/>
</linearGradient>
</defs>
</svg>
