<svg width="77" height="19" viewBox="0 0 77 19" fill="none" xmlns="http://www.w3.org/2000/svg">
<path d="M29.7774 7.92899C29.5815 9.39797 28.4063 9.39797 27.3291 9.39797H26.7415L27.2312 6.55795C27.2312 6.36208 27.427 6.26415 27.6229 6.26415H27.9167C28.7001 6.26415 29.3857 6.26415 29.7774 6.65588C29.7774 7.04761 29.7774 7.43934 29.7774 7.92899ZM29.2877 4.01172H25.0767C24.7829 4.01172 24.587 4.20758 24.4891 4.50138L22.8242 15.2739C22.8242 15.4698 22.9222 15.6656 23.216 15.6656H25.1746C25.4684 15.6656 25.6642 15.4698 25.7622 15.176L26.2518 12.238C26.2518 11.9442 26.5456 11.7483 26.8394 11.7483H28.2105C30.9526 11.7483 32.5195 10.3773 33.0091 7.73313C33.205 6.55795 33.0091 5.67656 32.5195 4.99104C31.736 4.40345 30.6588 4.01172 29.2877 4.01172Z" fill="#263577"/>
<path d="M38.9831 11.8485C38.7872 13.0237 37.9058 13.8071 36.7307 13.8071C36.1431 13.8071 35.6534 13.6113 35.3596 13.2195C35.0658 12.8278 34.9679 12.3382 35.0658 11.8485C35.2617 10.6733 36.1431 9.88985 37.3183 9.88985C37.9059 9.88985 38.3955 10.0857 38.6893 10.4774C38.8852 10.7712 39.081 11.2609 38.9831 11.8485ZM41.7252 7.93122H39.7666C39.5707 7.93122 39.4727 8.02915 39.3748 8.22501L39.2769 8.8126L39.179 8.61674C38.7872 8.02915 37.8079 7.73535 36.8286 7.73535C34.5762 7.73535 32.7155 9.4002 32.3237 11.7506C32.1279 12.9257 32.4216 14.003 33.1072 14.7864C33.6948 15.472 34.5762 15.7658 35.6534 15.7658C37.4162 15.7658 38.3955 14.5906 38.3955 14.5906L38.2976 15.1782C38.2976 15.374 38.3955 15.5699 38.6893 15.5699H40.4521C40.7459 15.5699 40.9417 15.374 41.0397 15.0802L42.1169 8.22501C42.1169 8.12708 42.019 7.93122 41.7252 7.93122Z" fill="#263577"/>
<path d="M52.3989 7.92871H50.3423C50.1465 7.92871 49.9506 8.02664 49.8527 8.22251L47.1106 12.3356L45.9354 8.41837C45.8375 8.12457 45.6416 8.02664 45.3478 8.02664H43.3892C43.1933 8.02664 42.9975 8.22251 43.0954 8.5163L45.3478 14.9798L43.2912 17.9178C43.0954 18.1136 43.2912 18.5054 43.585 18.5054H45.6416C45.8375 18.5054 46.0333 18.4074 46.1313 18.2116L52.7906 8.5163C52.8886 8.22251 52.6927 7.92871 52.3989 7.92871Z" fill="#263577"/>
<path d="M59.5484 7.92899C59.3525 9.39797 58.1773 9.39797 57.1001 9.39797H56.5125L57.0022 6.55795C57.0022 6.36208 57.198 6.26415 57.3939 6.26415H57.6877C58.4711 6.26415 59.1567 6.26415 59.5484 6.65588C59.6463 7.04761 59.6463 7.43934 59.5484 7.92899ZM59.0587 4.01172H54.8477C54.5539 4.01172 54.358 4.20758 54.2601 4.50138L52.5952 15.2739C52.5952 15.4698 52.6932 15.6656 52.987 15.6656H55.1415C55.3373 15.6656 55.5332 15.5677 55.5332 15.2739L56.0228 12.238C56.0228 11.9442 56.3166 11.7483 56.6104 11.7483H57.9815C60.7236 11.7483 62.2905 10.3773 62.7802 7.73313C62.976 6.55795 62.7802 5.67656 62.2905 4.99104C61.605 4.40345 60.5277 4.01172 59.0587 4.01172Z" fill="#2199D6"/>
<path d="M68.8517 11.8485C68.6559 13.0237 67.7745 13.8071 66.5993 13.8071C66.0117 13.8071 65.5221 13.6113 65.2283 13.2195C64.9345 12.8278 64.8365 12.3382 64.9345 11.8485C65.1303 10.6733 66.0117 9.88985 67.1869 9.88985C67.7745 9.88985 68.2642 10.0857 68.558 10.4774C68.7538 10.7712 68.9497 11.2609 68.8517 11.8485ZM71.5939 7.93122H69.6352C69.4393 7.93122 69.3414 8.02915 69.2435 8.22501L69.1456 8.8126L69.0476 8.61674C68.6559 8.02915 67.6766 7.73535 66.6973 7.73535C64.4448 7.73535 62.5841 9.4002 62.1924 11.7506C61.9965 12.9257 62.2903 14.003 62.9758 14.7864C63.5634 15.472 64.4448 15.7658 65.5221 15.7658C67.2848 15.7658 68.2641 14.5906 68.2641 14.5906L68.1662 15.1782C68.1662 15.374 68.2642 15.5699 68.558 15.5699H70.3207C70.6145 15.5699 70.8104 15.374 70.9083 15.0802L71.9856 8.22501C71.9856 8.12708 71.7897 7.93122 71.5939 7.93122Z" fill="#2199D6"/>
<path d="M73.9449 4.30551L72.1821 15.2739C72.1821 15.4698 72.2801 15.6656 72.5739 15.6656H74.3366C74.6304 15.6656 74.8263 15.4698 74.9242 15.176L76.5891 4.40345C76.5891 4.20758 76.4911 4.01172 76.1973 4.01172H74.2387C74.1408 4.01172 74.0429 4.20758 73.9449 4.30551Z" fill="#2199D6"/>
<path d="M5.39113 17.723L5.68491 15.6665H4.99939H1.57178L3.92215 0.682891C3.92215 0.682891 3.92214 0.584961 4.02008 0.584961H4.11801H9.89599C11.7567 0.584961 13.1277 0.976689 13.8133 1.76014C14.1071 2.15187 14.3029 2.5436 14.4009 2.93533C14.4988 3.42499 14.4988 3.91464 14.4009 4.60017V4.9919L14.6947 5.18776C14.9885 5.28569 15.1843 5.48156 15.3802 5.67742C15.674 5.97122 15.8698 6.36294 15.8698 6.8526C15.9678 7.34226 15.9678 7.92985 15.7719 8.61538C15.576 9.39883 15.3802 9.98642 15.0864 10.574C14.7926 11.0637 14.4009 11.4554 14.0091 11.8471C13.6174 12.1409 13.0298 12.3368 12.5401 12.5326C11.9526 12.6306 11.365 12.7285 10.6794 12.7285H10.1898C9.89599 12.7285 9.6022 12.8264 9.30841 13.0223C9.11254 13.2182 8.91668 13.512 8.81875 13.8058V14.0016L8.23115 17.6251V17.723V17.821C8.23115 17.821 8.23114 17.821 8.13321 17.821H5.39113V17.723Z" fill="#263577"/>
<path d="M15.0875 4.59961C15.0875 4.69754 15.0875 4.79548 14.9896 4.89341C14.2061 8.81068 11.6599 10.0838 8.33024 10.0838H6.66539C6.27366 10.0838 5.88194 10.3776 5.88194 10.7693L5.00055 16.2535L4.80469 17.8204C4.80469 18.1142 5.00055 18.3101 5.19641 18.3101H8.2323C8.62403 18.3101 8.91782 18.0163 8.91782 17.7225V17.5266L9.50542 14.0011V13.8052C9.60335 13.4135 9.89715 13.2176 10.1909 13.2176H10.6806C13.6186 13.2176 15.871 12.0424 16.4586 8.61482C16.7524 7.14584 16.5565 5.97066 15.871 5.1872C15.6751 4.99134 15.3813 4.79547 15.0875 4.59961Z" fill="#2199D6"/>
<path d="M14.304 4.30551C14.206 4.30551 14.1081 4.20758 13.9122 4.20758C13.8143 4.20758 13.6184 4.10965 13.5205 4.10965C13.0309 4.01172 12.5412 4.01172 12.0515 4.01172H7.54668C7.44874 4.01172 7.35081 4.01172 7.25288 4.10965C7.05701 4.20758 6.86115 4.40344 6.86115 4.59931L5.88184 10.6711V10.867C5.97977 10.4752 6.27355 10.1814 6.66528 10.1814H8.33013C11.6598 10.1814 14.206 8.81038 14.9895 4.99104C14.9895 4.89311 14.9895 4.79517 15.0874 4.69724C14.8916 4.59931 14.6957 4.50138 14.4998 4.40345C14.4019 4.30552 14.304 4.30551 14.304 4.30551Z" fill="#252C5E"/>
<path d="M6.86127 4.6028C6.86127 4.40693 7.05712 4.21107 7.25299 4.11314C7.35092 4.11314 7.44885 4.01521 7.54679 4.01521H12.0516C12.5413 4.01521 13.1289 4.01521 13.5206 4.11314C13.6186 4.11314 13.8144 4.11314 13.9124 4.21107C14.0103 4.21107 14.1082 4.309 14.3041 4.309C14.402 4.309 14.402 4.309 14.4999 4.40694C14.6958 4.50487 14.8917 4.6028 15.0875 4.70073C15.2834 3.23175 15.0875 2.25243 14.3041 1.37104C13.4227 0.391725 11.8558 0 9.89715 0H4.11917C3.72744 0 3.33571 0.293793 3.33571 0.68552L0.985352 15.767C0.985352 16.0608 1.18122 16.3546 1.47501 16.3546H5.00055L5.88195 10.6746L6.86127 4.6028Z" fill="#263577"/>
</svg>
