<svg width="13" height="16" viewBox="0 0 13 16" fill="none" xmlns="http://www.w3.org/2000/svg">
<path d="M12.805 10.9752C12.0016 10.0873 11.0266 9.37869 9.94147 8.89404C8.85635 8.40939 7.68459 8.15919 6.5 8.15919C5.31541 8.15919 4.14365 8.40939 3.05853 8.89404C1.9734 9.37869 0.998426 10.0873 0.195 10.9752C0.0709583 11.1151 0.00157114 11.2966 0 11.4852V14.5452C0.00262922 14.7463 0.082806 14.9383 0.223174 15.0796C0.363543 15.2208 0.552808 15.3 0.75 15.3H12.25C12.4489 15.3 12.6397 15.2194 12.7803 15.0759C12.921 14.9325 13 14.7379 13 14.535V11.475C12.996 11.2899 12.9268 11.1125 12.805 10.9752Z" fill="#ED1C24"/>
<path d="M6.49955 7.14003C8.43255 7.14003 9.99955 5.54168 9.99955 3.57001C9.99955 1.59835 8.43255 0 6.49955 0C4.56655 0 2.99955 1.59835 2.99955 3.57001C2.99955 5.54168 4.56655 7.14003 6.49955 7.14003Z" fill="#ED1C24"/>
</svg>
