<svg width="19" height="19" viewBox="0 0 19 19" fill="none" xmlns="http://www.w3.org/2000/svg">
<path d="M8.35609 4.93949L5.67788 1.84804C5.36913 1.49179 4.80309 1.49337 4.44446 1.85279L2.24204 4.05916C1.58654 4.71545 1.39892 5.68999 1.77813 6.47137C4.04357 11.162 7.8265 14.9502 12.5139 17.2222C13.2945 17.6014 14.2683 17.4138 14.9238 16.7575L17.1468 14.5305C17.507 14.1703 17.5078 13.6011 17.1483 13.2924L14.045 10.6284C13.7204 10.3497 13.2161 10.3862 12.8908 10.7123L11.8109 11.7937C11.7556 11.8517 11.6829 11.8899 11.6038 11.9025C11.5247 11.915 11.4437 11.9013 11.3731 11.8634C9.60806 10.847 8.14391 9.38093 7.12979 7.61454C7.09181 7.54388 7.07806 7.46272 7.09065 7.38349C7.10323 7.30427 7.14146 7.23136 7.19946 7.17595L8.27613 6.09849C8.60229 5.77074 8.63792 5.26408 8.35609 4.9387V4.93949Z" stroke="white" stroke-width="2" stroke-linecap="round" stroke-linejoin="round"/>
</svg>
