<svg width="12" height="15" viewBox="0 0 12 15" fill="none" xmlns="http://www.w3.org/2000/svg">
<path d="M9.62429 4.83064L11.6101 1.55274C11.6101 1.55274 12.2701 0.614808 11.8727 0.144513C11.4763 -0.325782 10.6069 0.502327 10.6069 0.502327L7.89793 3.56589L1.40785 3.15848L0.2356 4.52331L5.83746 6.47977L3.11369 11.057C3.04063 11.1579 2.97332 11.2571 2.91585 11.3545L0.834039 10.7363L0 11.8753L2.23943 12.6556L2.33876 12.7406L2.66712 13.0187L2.95362 13.2632L4.04952 15L4.822 13.9443L3.56191 11.893C3.61034 11.8488 3.65549 11.7983 3.69654 11.7425L7.43904 7.72149L7.50143 7.77463L10.9213 13.3553L11.7586 11.971L9.64317 4.84747L9.62429 4.83064Z" fill="#ED1C24"/>
</svg>
