<svg width="19" height="19" viewBox="0 0 19 19" fill="none" xmlns="http://www.w3.org/2000/svg">
<g clip-path="url(#clip0)">
<path d="M13.4295 11.9379L12.5167 10.4667C13.4747 11.657 15.2473 11.7162 16.2822 10.6157C17.2272 9.61088 17.179 8.03288 16.174 7.08778C15.1696 6.14313 13.5913 6.19103 12.6462 7.19603C11.9201 7.96813 11.7884 9.06593 12.1972 9.95173L9.98902 6.3928L13.2659 5.44721C14.2835 5.15357 14.7644 3.9887 14.2474 3.06219C13.872 2.38948 13.0927 2.06878 12.3526 2.28238L7.3917 3.71391C6.10545 4.08511 5.52944 5.58032 6.23571 6.71869L7.73515 9.13537L5.10547 10.767C8.26915 10.8397 10.555 11.803 13.4295 11.9379Z" fill="#4D4D4D"/>
<path d="M0.708988 13.5779C7.90067 11.5335 10.6167 15.6607 18.5838 13.581C18.8813 13.5034 19.0595 13.1993 18.9818 12.9019C18.9042 12.6044 18.6001 12.4263 18.3027 12.5039C10.6483 14.502 7.92851 10.3682 0.40458 12.507C0.108893 12.5911 -0.0627013 12.8989 0.0213515 13.1947C0.105441 13.4904 0.413412 13.6619 0.708988 13.5779Z" fill="#4D4D4D"/>
<path d="M18.3027 15.0999C10.6343 17.1017 7.94342 12.96 0.40458 15.1031C0.108893 15.1871 -0.0627013 15.495 0.0213515 15.7907C0.105404 16.0864 0.413375 16.258 0.708988 16.1739C7.90067 14.1296 10.6167 18.2567 18.5838 16.1771C18.8813 16.0995 19.0595 15.7953 18.9818 15.4979C18.9042 15.2004 18.6001 15.0223 18.3027 15.0999Z" fill="#4D4D4D"/>
</g>
<defs>
<clipPath id="clip0">
<rect width="19" height="19" fill="white"/>
</clipPath>
</defs>
</svg>
