<svg width="67" height="21" viewBox="0 0 67 21" fill="none" xmlns="http://www.w3.org/2000/svg">
<path d="M62.4799 0.293945H58.2689C56.9958 0.293945 56.0164 0.685673 55.4289 1.95879L47.3984 20.2721H53.0785C53.0785 20.2721 54.0578 17.8238 54.2537 17.2362C54.8413 17.2362 60.4234 17.2362 61.2068 17.2362C61.4027 17.9217 61.8924 20.1741 61.8924 20.1741H66.9848L62.4799 0.293945ZM55.8206 13.123C56.3102 11.9478 57.9751 7.54091 57.9751 7.54091C57.9751 7.63884 58.4647 6.36572 58.6606 5.6802L59.0523 7.44297C59.0523 7.44297 60.1296 12.2416 60.3254 13.221H55.8206V13.123Z" fill="#3362AB"/>
<path d="M47.7909 13.7105C47.7909 17.8236 44.0695 20.5657 38.2915 20.5657C35.8432 20.5657 33.4928 20.076 32.2197 19.4884L33.0032 14.9836L33.6887 15.2774C35.4515 16.0608 36.6267 16.3546 38.7812 16.3546C40.3481 16.3546 42.0129 15.767 42.0129 14.396C42.0129 13.5146 41.3274 12.927 39.1729 11.9477C37.1163 10.9684 34.3742 9.40146 34.3742 6.56144C34.3742 2.64416 38.1936 0 43.5798 0C45.6364 0 47.3992 0.391728 48.4764 0.881387L47.693 5.19039L47.3012 4.79866C46.3219 4.40694 45.0488 4.01521 43.1881 4.01521C41.1315 4.11314 40.1522 4.99453 40.1522 5.77798C40.1522 6.65937 41.3274 7.34489 43.1881 8.22628C46.3219 9.69526 47.7909 11.3601 47.7909 13.7105Z" fill="#3362AB"/>
<path d="M0 0.489384L0.0979319 0.0976562H8.52008C9.69526 0.0976562 10.5766 0.489384 10.8704 1.7625L12.7311 10.5764C10.8704 5.87564 6.56144 2.05629 0 0.489384Z" fill="#F9B50B"/>
<path d="M24.5809 0.294221L16.0608 20.1744H10.2828L5.38623 3.52597C8.91178 5.77841 11.8497 9.30396 12.927 11.7523L13.5146 13.8088L18.8029 0.196289H24.5809V0.294221Z" fill="#3362AB"/>
<path d="M26.8334 0.196289H32.2196L28.792 20.1744H23.4058L26.8334 0.196289Z" fill="#3362AB"/>
</svg>
